<svg width="24" height="24" viewBox="0 0 24 24" fill="none" xmlns="http://www.w3.org/2000/svg">
<path d="M17.9999 6H15.9999C15.9999 3.79 14.2099 2 11.9999 2C9.78994 2 7.99994 3.79 7.99994 6H5.99994C4.89994 6 3.99994 6.9 3.99994 8V20C3.99994 21.1 4.89994 22 5.99994 22H17.9999C19.0999 22 19.9999 21.1 19.9999 20V8C19.9999 6.9 19.0999 6 17.9999 6ZM11.9999 4C13.0999 4 13.9999 4.9 13.9999 6H9.99994C9.99994 4.9 10.8999 4 11.9999 4ZM17.9999 20H5.99994V8H7.99994C7.99994 8 8.44994 8 8.99994 8C9.54994 8 9.99994 8 9.99994 8H13.9999C13.9999 8 14.4499 8 14.9999 8C15.5499 8 15.9999 8 15.9999 8H17.9999V20Z" fill="white"/>
</svg>
