<svg width="17" height="16" viewBox="0 0 17 16" fill="none" xmlns="http://www.w3.org/2000/svg">
<path d="M8.24589 0.0929565C3.48352 0.0929565 0 1.9153 0 4.26783C0 8.9729 5.14632 15.907 8.24589 15.907C11.3455 15.907 16.4918 8.9729 16.4918 4.26783C16.4918 1.9153 13.0083 0.0929565 8.24589 0.0929565Z" fill="white"/>
<path d="M12.2266 5.57582L12.6502 2.91228C12.6593 2.8543 12.6131 2.80247 12.5541 2.80444L5.03246 3.06187C4.98752 3.06335 4.94998 3.09651 4.94306 3.14073L4.51953 5.80427C4.51039 5.86224 4.55657 5.91407 4.6156 5.91211L7.07679 5.82785C7.13951 5.82564 7.18866 5.88091 7.17878 5.94257L6.50631 10.1323C6.49643 10.1932 6.5478 10.2468 6.60954 10.2399L7.63961 10.1252C7.70727 10.1181 7.7621 10.1787 7.74777 10.2448L7.05431 13.4218C7.03209 13.5237 7.16915 13.5797 7.22521 13.4915L10.2937 8.67686C10.3344 8.61299 10.286 8.5302 10.21 8.53364L9.0732 8.58597C9.00874 8.58891 8.96059 8.52775 8.97886 8.46609L9.77333 5.79936C9.78469 5.76079 9.81976 5.73401 9.86001 5.73254L12.1372 5.65467C12.1822 5.65295 12.2197 5.62004 12.2266 5.57582Z" fill="#1D1D1D"/>
</svg>
