<svg width="64" height="64" viewBox="0 0 64 64" fill="none" xmlns="http://www.w3.org/2000/svg">
<g opacity="0.6">
<path d="M8 34.6667V16C8 12.2288 8 10.3431 9.17157 9.17157C10.3431 8 12.2288 8 16 8H48C51.7712 8 53.6569 8 54.8284 9.17157C56 10.3431 56 12.2288 56 16V48C56 51.7712 56 53.6569 54.8284 54.8284C53.6569 56 51.7712 56 48 56H32" stroke="white" stroke-width="3"/>
<path fill-rule="evenodd" clip-rule="evenodd" d="M54 41.2117L47.6516 34.8632L47.5757 34.7874C46.7457 33.9572 46.0085 33.2199 45.3455 32.7265C44.6342 32.1971 43.7436 31.7444 42.6539 31.9212C41.5643 32.098 40.8626 32.8091 40.3551 33.5363C39.8822 34.214 39.416 35.1466 38.8911 36.1966L38.8911 36.1967L38.8431 36.2927L37.3388 39.3014C37.2075 39.5639 37.0988 39.7811 37.0011 39.9678C36.8611 39.8104 36.703 39.626 36.5119 39.4031L22.4722 23.0235L21.496 21.8846L19.2183 23.837L20.1944 24.9759L34.2342 41.3555L34.2921 41.4232C34.6841 41.8807 35.0794 42.3423 35.4528 42.6666C35.8666 43.0261 36.5277 43.4629 37.4179 43.3533C38.3081 43.2437 38.8435 42.6596 39.1578 42.2105C39.4413 41.8053 39.713 41.2616 39.9822 40.7227L40.0221 40.643L41.5264 37.6343C42.1144 36.4584 42.4837 35.7284 42.8153 35.2531C42.9708 35.0303 43.0716 34.9341 43.1213 34.8956C43.1268 34.8914 43.1313 34.8881 43.135 34.8856C43.1393 34.8868 43.1446 34.8885 43.1511 34.8908C43.2105 34.9116 43.3365 34.9709 43.5545 35.1332C44.0194 35.4792 44.6006 36.0549 45.5302 36.9846L52.2727 43.727L53.3333 44.7877L54 44.121V41.2117Z" fill="white"/>
<circle cx="44" cy="20" r="4" fill="white"/>
<path d="M8 40V38.5H6.5V40H8ZM14.9393 49.0606C15.5251 49.6464 16.4749 49.6464 17.0607 49.0606C17.6464 48.4749 17.6464 47.5251 17.0607 46.9393L14.9393 49.0606ZM9.5 46V40H6.5V46H9.5ZM8 41.5H14V38.5H8V41.5ZM6.93934 41.0606L14.9393 49.0606L17.0607 46.9393L9.06066 38.9393L6.93934 41.0606Z" fill="white"/>
<path d="M8 56V57.5H6.5V56H8ZM14.9393 46.9393C15.5251 46.3535 16.4749 46.3535 17.0607 46.9393C17.6464 47.5251 17.6464 48.4749 17.0607 49.0606L14.9393 46.9393ZM9.5 50V56H6.5V50H9.5ZM8 54.5H14V57.5H8V54.5ZM6.93934 54.9393L14.9393 46.9393L17.0607 49.0606L9.06066 57.0606L6.93934 54.9393Z" fill="white"/>
<path d="M24 40V38.5H25.5V40H24ZM17.0607 49.0606C16.4749 49.6464 15.5251 49.6464 14.9393 49.0606C14.3536 48.4749 14.3536 47.5251 14.9393 46.9393L17.0607 49.0606ZM22.5 46V40H25.5V46H22.5ZM24 41.5H18V38.5H24V41.5ZM25.0607 41.0606L17.0607 49.0606L14.9393 46.9393L22.9393 38.9393L25.0607 41.0606Z" fill="white"/>
<path d="M24 56V57.5H25.5V56H24ZM17.0607 46.9393C16.4749 46.3535 15.5251 46.3535 14.9393 46.9393C14.3536 47.5251 14.3536 48.4749 14.9393 49.0606L17.0607 46.9393ZM22.5 50V56H25.5V50H22.5ZM24 54.5H18V57.5H24V54.5ZM25.0607 54.9393L17.0607 46.9393L14.9393 49.0606L22.9393 57.0606L25.0607 54.9393Z" fill="white"/>
</g>
</svg>
