<svg width="108" height="20" viewBox="0 0 108 20" fill="none" xmlns="http://www.w3.org/2000/svg">
<path d="M9.80979 0.58541C9.86966 0.401148 10.1303 0.401148 10.1902 0.58541L12.2002 6.77163C12.227 6.85404 12.3038 6.90983 12.3904 6.90983H18.895C19.0888 6.90983 19.1693 7.15775 19.0126 7.27163L13.7503 11.0949C13.6802 11.1459 13.6508 11.2361 13.6776 11.3185L15.6876 17.5048C15.7475 17.689 15.5366 17.8422 15.3799 17.7284L10.1176 13.9051C10.0475 13.8541 9.95254 13.8541 9.88244 13.9051L4.62013 17.7284C4.46338 17.8422 4.25249 17.689 4.31236 17.5048L6.32238 11.3185C6.34916 11.2361 6.31983 11.1459 6.24973 11.0949L0.987415 7.27163C0.830672 7.15775 0.911227 6.90983 1.10497 6.90983H7.60955C7.6962 6.90983 7.77299 6.85404 7.79976 6.77163L9.80979 0.58541Z" fill="white"/>
<path d="M31.8098 0.58541C31.8697 0.401148 32.1303 0.401148 32.1902 0.58541L34.2002 6.77163C34.227 6.85404 34.3038 6.90983 34.3904 6.90983H40.895C41.0888 6.90983 41.1693 7.15775 41.0126 7.27163L35.7503 11.0949C35.6802 11.1459 35.6508 11.2361 35.6776 11.3185L37.6876 17.5048C37.7475 17.689 37.5366 17.8422 37.3799 17.7284L32.1176 13.9051C32.0475 13.8541 31.9525 13.8541 31.8824 13.9051L26.6201 17.7284C26.4634 17.8422 26.2525 17.689 26.3124 17.5048L28.3224 11.3185C28.3492 11.2361 28.3198 11.1459 28.2497 11.0949L22.9874 7.27163C22.8307 7.15775 22.9112 6.90983 23.105 6.90983H29.6096C29.6962 6.90983 29.773 6.85404 29.7998 6.77163L31.8098 0.58541Z" fill="white"/>
<path d="M53.8098 0.58541C53.8697 0.401148 54.1303 0.401148 54.1902 0.58541L56.2002 6.77163C56.227 6.85404 56.3038 6.90983 56.3904 6.90983H62.895C63.0888 6.90983 63.1693 7.15775 63.0126 7.27163L57.7503 11.0949C57.6802 11.1459 57.6508 11.2361 57.6776 11.3185L59.6876 17.5048C59.7475 17.689 59.5366 17.8422 59.3799 17.7284L54.1176 13.9051C54.0475 13.8541 53.9525 13.8541 53.8824 13.9051L48.6201 17.7284C48.4634 17.8422 48.2525 17.689 48.3124 17.5048L50.3224 11.3185C50.3492 11.2361 50.3198 11.1459 50.2497 11.0949L44.9874 7.27163C44.8307 7.15775 44.9112 6.90983 45.105 6.90983H51.6096C51.6962 6.90983 51.773 6.85404 51.7998 6.77163L53.8098 0.58541Z" fill="white"/>
<path d="M75.8098 0.58541C75.8697 0.401148 76.1303 0.401148 76.1902 0.58541L78.2002 6.77163C78.227 6.85404 78.3038 6.90983 78.3904 6.90983H84.895C85.0888 6.90983 85.1693 7.15775 85.0126 7.27163L79.7503 11.0949C79.6802 11.1459 79.6508 11.2361 79.6776 11.3185L81.6876 17.5048C81.7475 17.689 81.5366 17.8422 81.3799 17.7284L76.1176 13.9051C76.0475 13.8541 75.9525 13.8541 75.8824 13.9051L70.6201 17.7284C70.4634 17.8422 70.2525 17.689 70.3124 17.5048L72.3224 11.3185C72.3492 11.2361 72.3198 11.1459 72.2497 11.0949L66.9874 7.27163C66.8307 7.15775 66.9112 6.90983 67.105 6.90983H73.6096C73.6962 6.90983 73.773 6.85404 73.7998 6.77163L75.8098 0.58541Z" fill="white"/>
<path d="M97.8098 0.58541C97.8697 0.401148 98.1303 0.401148 98.1902 0.58541L100.2 6.77163C100.227 6.85404 100.304 6.90983 100.39 6.90983H106.895C107.089 6.90983 107.169 7.15775 107.013 7.27163L101.75 11.0949C101.68 11.1459 101.651 11.2361 101.678 11.3185L103.688 17.5048C103.748 17.689 103.537 17.8422 103.38 17.7284L98.1176 13.9051C98.0475 13.8541 97.9525 13.8541 97.8824 13.9051L92.6201 17.7284C92.4634 17.8422 92.2525 17.689 92.3124 17.5048L94.3224 11.3185C94.3492 11.2361 94.3198 11.1459 94.2497 11.0949L88.9874 7.27163C88.8307 7.15775 88.9112 6.90983 89.105 6.90983H95.6096C95.6962 6.90983 95.773 6.85404 95.7998 6.77163L97.8098 0.58541Z" fill="white"/>
</svg>
