<svg width="144" height="24" viewBox="0 0 144 24" fill="none" xmlns="http://www.w3.org/2000/svg">
<g clip-path="url(#clip0_1_34)">
<path d="M9.57606 0C4.2872 0 0 4.29792 0 9.6C0 12.2501 1.07108 14.6496 2.80339 16.3867C4.53618 18.1248 8.61845 20.64 8.85785 23.28C8.89374 23.6758 9.17961 24 9.57606 24C9.97251 24 10.2584 23.6758 10.2943 23.28C10.5337 20.64 14.6159 18.1248 16.3487 16.3867C18.081 14.6496 19.1521 12.2501 19.1521 9.6C19.1521 4.29792 14.8649 0 9.57606 0Z" fill="url(#paint0_linear_1_34)"/>
<path d="M9.57605 12.9605C11.4271 12.9605 12.9277 11.4562 12.9277 9.60047C12.9277 7.74479 11.4271 6.24047 9.57605 6.24047C7.72499 6.24047 6.22443 7.74479 6.22443 9.60047C6.22443 11.4562 7.72499 12.9605 9.57605 12.9605Z" fill="white"/>
<path d="M35.8552 17.7619H38.3841V3.2H34.7057C31.0064 3.2 29.0627 5.10667 29.0627 7.9143C29.0627 10.1562 30.1285 11.4762 32.0304 12.8381L28.7282 17.7619H31.4661L35.1445 12.2514L33.8696 11.3924C32.3231 10.3448 31.5706 9.52763 31.5706 7.76762C31.5706 6.21715 32.6574 5.16954 34.7265 5.16954H35.8552V17.7619ZM69.0654 17.0495V15.0172C68.2922 15.541 66.9963 16.0019 65.7841 16.0019C63.9658 16.0019 63.2761 15.1429 63.1716 13.3829H69.1699V12.0629C69.1699 8.3962 67.5607 7.01334 65.0735 7.01334C62.043 7.01334 60.6009 9.33906 60.6009 12.5238C60.6009 16.1905 62.3984 17.9714 65.5751 17.9714C67.1635 17.9714 68.334 17.5524 69.0654 17.0495ZM84.6152 17.9714C85.7647 17.9714 86.5798 17.7619 87.1859 17.3219V15.2896C86.5589 15.7295 85.8064 16.0019 84.7614 16.0019C82.985 16.0019 82.2535 14.619 82.2535 12.44C82.2535 10.1562 83.1522 8.98286 84.7824 8.98286C85.7437 8.98286 86.6843 9.31811 87.1859 9.63239V7.5162C86.6634 7.22287 85.7437 7.01334 84.5107 7.01334C81.3338 7.01334 79.6827 9.29716 79.6827 12.5029C79.6827 16.0229 81.292 17.9714 84.6152 17.9714ZM46.2844 7.22287V11.3924H42.9612V7.22287H40.4741V17.7619H42.9612V13.3619H46.2844V17.7619H48.7714V7.22287H46.2844ZM59.9948 15.7924H58.8871V7.22287H51.6347V8.12382C51.6347 10.701 51.4675 14.0324 50.5898 15.7924H49.8165V20.1714H52.1155V17.7619H57.6958V20.1714H59.9948V15.7924ZM77.0075 17.7619H79.8291L75.837 12.0838L79.3483 7.22287H76.8402L73.3291 12.0838V7.22287H70.8419V17.7619H73.3291V12.5867L77.0075 17.7619ZM65.0318 8.98286C66.2648 8.98286 66.641 10.0095 66.641 11.3295V11.5391H63.1716C63.2343 9.86287 63.8404 8.98286 65.0318 8.98286ZM56.4 15.7924H52.8887C53.5784 14.2 53.7666 11.3295 53.7666 9.50668V9.1924H56.4V15.7924Z" fill="white"/>
<path d="M100.02 17.7619H102.967L97.7839 10.0933L102.633 3.2H100.125L95.4222 9.90478V3.2H92.8933V17.7619H95.4222V10.9314L100.02 17.7619Z" fill="white"/>
<path d="M111.353 10.5753C111.353 8.01906 110.057 7.05524 107.424 7.05524C105.773 7.05524 104.477 7.57906 103.724 8.01906V10.0933C104.393 9.59048 105.856 9.04572 107.131 9.04572C108.322 9.04572 108.866 9.46477 108.866 10.5962V11.1829H108.469C104.665 11.1829 102.972 12.44 102.972 14.5771C102.972 16.7143 104.268 17.9086 106.191 17.9086C107.654 17.9086 108.281 17.4266 108.761 16.9238H108.866C108.887 17.1962 108.97 17.5524 109.054 17.7619H111.478C111.395 16.9028 111.353 16.0438 111.353 15.1848V10.5753ZM108.866 15.2477C108.552 15.7086 107.967 16.0858 107.089 16.0858C106.044 16.0858 105.522 15.4572 105.522 14.5142C105.522 13.2781 106.379 12.8381 108.511 12.8381H108.866V15.2477Z" fill="white"/>
<path d="M115.578 7.22287H113.279V20.8H115.766V16.5257C116.393 17.4686 117.313 17.9714 118.379 17.9714C120.803 17.9714 122.475 16.0229 122.475 12.4819C122.475 8.96191 120.845 7.01334 118.504 7.01334C117.334 7.01334 116.372 7.5581 115.704 8.58477L115.578 7.22287ZM117.752 16.0019C116.435 16.0019 115.766 14.9334 115.766 12.5029C115.766 10.0514 116.477 8.98286 117.877 8.98286C119.236 8.98286 119.904 10.0514 119.904 12.4819C119.904 14.9334 119.194 16.0019 117.752 16.0019Z" fill="white"/>
<path d="M131.144 9.19239V7.22287H122.805V9.19239H125.73V17.7619H128.217V9.19239H131.144Z" fill="white"/>
<path d="M132.542 7.22287V17.7619H136.326C138.771 17.7619 140.506 16.5048 140.506 14.0324C140.506 11.6857 138.959 10.4495 136.368 10.4495H135.03V7.22287H132.542ZM141.425 7.22287V17.7619H143.913V7.22287H141.425ZM136.179 15.7924H135.03V12.419H136.242C137.308 12.419 137.935 12.901 137.935 14.1162C137.935 15.3314 137.245 15.7924 136.179 15.7924Z" fill="white"/>
</g>
<defs>
<linearGradient id="paint0_linear_1_34" x1="9.57606" y1="0" x2="9.57606" y2="24" gradientUnits="userSpaceOnUse">
<stop stop-color="#FF6122"/>
<stop offset="1" stop-color="#F22411"/>
</linearGradient>
<clipPath id="clip0_1_34">
<rect width="144" height="24" fill="white"/>
</clipPath>
</defs>
</svg>
